<svg width="253" height="354" viewBox="0 0 253 354" fill="none" xmlns="http://www.w3.org/2000/svg">
<path d="M118.822 318.795C119.978 311.939 115.03 308.564 107.771 311.255C100.512 313.947 93.69 321.687 92.534 328.543C91.3779 335.399 96.3255 338.775 103.585 336.083C110.844 333.392 117.666 325.652 118.822 318.795Z" fill="url(#paint0_linear_19_2)"/>
<path d="M121.969 314.378C122.598 320.591 115.73 329.385 106.643 334.013C97.5403 338.66 89.6511 337.369 89.0222 331.156C88.8334 329.291 89.3127 327.198 90.3395 325.051C92.7018 320.05 97.9894 314.759 104.349 311.521C111.168 308.048 117.304 307.896 120.211 310.663C121.203 311.583 121.812 312.821 121.969 314.378Z" fill="url(#paint1_linear_19_2)"/>
<path d="M119.21 315.783C119.226 315.938 119.241 316.092 119.241 316.255L119.243 316.279C119.383 321.418 113.782 328.407 106.452 332.141C99.1052 335.882 92.7246 334.996 91.8616 330.225L91.8592 330.201C91.8271 330.055 91.8115 329.9 91.7958 329.746C91.2727 324.577 96.9773 317.248 104.554 313.389C112.116 309.55 118.687 310.614 119.21 315.783Z" fill="url(#paint2_linear_19_2)"/>
<path opacity="0.5" fill-rule="evenodd" clip-rule="evenodd" d="M118.389 309.508C116.27 313.132 111.172 317.367 105.042 320.278C98.3513 323.455 92.4595 324.097 90.1033 322.212C92.3165 317.818 97.3176 313.155 103.339 310.296C109.796 307.23 115.612 307.086 118.389 309.508Z" fill="url(#paint3_linear_19_2)"/>
<path d="M119.233 316.507L119.235 316.531C119.375 321.615 113.808 328.529 106.521 332.223C99.2188 335.925 92.876 335.048 92.0176 330.328L92.0152 330.304C92.0003 329.483 92.1198 328.632 92.3723 327.737C93.7036 323.094 98.6023 317.718 104.729 314.612C111.198 311.333 116.934 311.652 118.742 315.062C118.974 315.489 119.144 315.971 119.233 316.507Z" fill="#557086"/>
<path opacity="0.2" fill-rule="evenodd" clip-rule="evenodd" d="M117.429 314.209C114.85 317.269 110.582 320.481 105.628 322.839C100.145 325.448 95.1949 326.358 92.285 325.557C93.5466 321.413 98.2118 316.61 104.053 313.83C110.222 310.894 115.697 311.169 117.429 314.209Z" fill="url(#paint4_linear_19_2)"/>
<path d="M116.755 317.131C116.164 312.652 110.589 311.724 104.32 315.087C98.2 318.374 93.7259 324.57 94.3069 328.953C94.7378 332.192 97.7902 333.565 101.824 332.802C102.333 332.001 102.703 330.856 102.882 330.224C103.071 329.687 103.277 329.154 103.485 328.633C104.652 328.339 106.158 327.281 106.933 326.194L106.963 326.153C105.908 326.352 104.539 327.227 103.668 328.213C103.933 327.574 104.217 326.951 104.52 326.344C105.674 326.094 107.203 325.088 108.013 324.007L108.044 323.967C107.035 324.116 105.661 324.931 104.751 325.886C105.055 325.291 105.377 324.699 105.718 324.122C106.899 323.796 108.401 322.69 109.139 321.584L109.169 321.543C108.186 321.768 106.965 322.555 106.135 323.444C106.164 323.391 106.195 323.35 106.224 323.298C106.434 322.964 106.644 322.643 106.854 322.322C108.195 321.336 109.314 319.708 109.405 318.554L109.401 318.507C108.003 319.434 106.786 321.124 106.63 322.336C106.419 322.645 106.225 322.958 106.031 323.271C106.324 322.392 106.172 321.576 105.585 321.259L105.554 321.3C104.852 322.413 104.837 323.641 105.526 324.107C105.199 324.651 104.908 325.202 104.601 325.774C104.736 324.875 104.28 324.139 103.469 324.012L103.456 324.056C103.028 325.143 103.423 326.136 104.313 326.361C104.026 326.948 103.756 327.539 103.504 328.133C103.602 327.215 103.093 326.468 102.233 326.367L102.22 326.411C101.846 327.52 102.327 328.507 103.281 328.674C103.113 329.074 102.964 329.49 102.814 329.894C102.761 329.883 102.709 329.884 102.642 329.906C102.406 329.976 102.066 330.049 101.706 330.082C101.464 330.092 101.208 330.135 100.938 330.21C99.9076 330.484 100.02 330.049 99.4043 329.621C99.3665 329.59 98.9062 329.498 98.8177 329.481C98.8 329.477 98.524 329.492 98.355 329.364C98.2203 329.232 98.1197 329.095 98.0863 328.936C98.0304 328.725 97.8827 328.637 97.5609 328.713C96.0389 329.1 96.5562 327.352 96.5876 327.147C96.6214 326.966 96.3885 326.72 96.3032 326.563C96.3008 326.539 96.2819 326.523 96.2782 326.487C96.1418 326.167 96.3402 325.726 96.5083 325.502C96.6765 325.278 97.2651 324.751 97.385 324.564C97.5049 324.377 97.5894 324.183 97.7105 324.008C97.8762 323.76 98.3727 323.179 99.0542 322.542C99.4662 322.156 99.504 321.671 99.6557 321.455C99.9131 321.085 100.342 320.866 100.65 320.482C100.804 320.29 101.03 320.125 101.167 319.929C101.854 319 102.821 318.28 103.78 317.639C104.432 317.219 105.187 316.972 105.888 316.702C105.989 316.663 106.09 316.637 106.19 316.598C107.744 315.843 109.632 315.13 110.357 315.264C110.799 315.352 111.046 315.566 111.168 315.743C111.309 315.935 111.482 316.098 111.701 316.213L112.163 316.493C112.459 316.669 112.579 316.998 112.499 317.416C112.454 317.653 112.443 317.885 112.536 317.95C112.686 318.063 113.112 318.16 113.361 318.221C113.485 318.246 113.624 318.25 113.762 318.243C114.09 318.226 114.729 318.202 114.732 318.226C114.735 318.262 114.798 318.368 114.552 318.682C114.305 318.984 113.821 319.509 113.821 319.509C113.821 319.509 113.866 319.611 113.941 319.673C114.017 319.735 114.213 319.786 114.177 319.943C114.14 320.1 113.772 320.401 113.902 320.486C114.015 320.579 114.284 320.492 114.231 320.657C114.179 320.823 113.822 321.244 113.865 321.323C113.907 321.401 114.296 322.159 113.637 322.672C113.137 323.052 111.71 323.857 111.052 324.217C110.773 324.372 110.521 324.627 110.391 324.882C110.306 325.076 110.225 325.306 110.186 325.603C110.119 326.316 109.394 328.234 109.394 328.234C109.394 328.234 109.364 328.286 109.337 328.363C109.268 328.537 109.191 328.803 109.216 328.878C109.238 328.929 109.348 328.986 109.509 329.03C109.635 329.079 109.836 329.014 110.013 328.873C114.337 325.484 117.221 320.717 116.755 317.131Z" fill="#38E8F6"/>
<path d="M116.791 316.063C116.287 311.874 110.709 311.4 104.35 315.032C98.1409 318.581 93.527 324.759 94.0235 328.859C94.392 331.888 97.429 332.964 101.493 331.951C102.02 331.158 102.414 330.049 102.606 329.439C102.806 328.918 103.024 328.4 103.243 327.892C104.42 327.53 105.953 326.421 106.752 325.338L106.784 325.297C105.721 325.562 104.329 326.487 103.435 327.482C103.714 326.859 104.011 326.25 104.327 325.654C105.491 325.335 107.045 324.273 107.88 323.194L107.912 323.153C106.897 323.367 105.5 324.237 104.568 325.205C104.886 324.62 105.22 324.038 105.574 323.468C106.766 323.075 108.295 321.921 109.058 320.822L109.09 320.781C108.098 321.065 106.856 321.897 106.006 322.797C106.037 322.745 106.068 322.705 106.099 322.653C106.315 322.323 106.533 322.004 106.75 321.685C108.115 320.657 109.271 319.037 109.386 317.941L109.382 317.896C107.96 318.873 106.705 320.558 106.525 321.714C106.307 322.022 106.106 322.331 105.905 322.641C106.216 321.789 106.08 321.03 105.497 320.773L105.466 320.813C104.738 321.916 104.699 323.078 105.381 323.468C105.042 324.006 104.739 324.548 104.42 325.11C104.573 324.251 104.13 323.588 103.319 323.527L103.305 323.57C102.854 324.627 103.231 325.537 104.12 325.686C103.819 326.261 103.537 326.839 103.272 327.418C103.388 326.544 102.892 325.875 102.031 325.841L102.017 325.884C101.62 326.959 102.083 327.857 103.037 327.946C102.861 328.336 102.703 328.74 102.545 329.132C102.491 329.126 102.439 329.131 102.371 329.156C102.133 329.239 101.791 329.333 101.428 329.39C101.185 329.417 100.928 329.476 100.655 329.566C99.6154 329.9 99.7367 329.481 99.1272 329.122C99.0899 329.095 98.6297 329.041 98.5412 329.031C98.5235 329.029 98.2461 329.063 98.079 328.955C97.9464 328.839 97.8481 328.717 97.8177 328.569C97.7658 328.374 97.6193 328.302 97.2947 328.397C95.7592 328.873 96.3132 327.183 96.3487 326.987C96.3862 326.814 96.1572 326.599 96.0747 326.456C96.0728 326.433 96.0541 326.42 96.0512 326.386C95.9206 326.094 96.1284 325.663 96.3017 325.439C96.4749 325.215 97.0762 324.674 97.2002 324.489C97.3243 324.304 97.4129 324.114 97.538 323.94C97.7093 323.694 98.2191 323.109 98.9158 322.458C99.337 322.063 99.3846 321.602 99.5411 321.387C99.8069 321.019 100.242 320.781 100.559 320.396C100.717 320.203 100.947 320.03 101.088 319.836C101.796 318.908 102.782 318.157 103.757 317.483C104.419 317.039 105.182 316.75 105.892 316.444C105.993 316.401 106.095 316.368 106.197 316.325C107.772 315.498 109.681 314.689 110.406 314.762C110.848 314.814 111.092 314.998 111.211 315.156C111.349 315.328 111.519 315.47 111.737 315.562L112.195 315.793C112.488 315.938 112.602 316.24 112.514 316.64C112.464 316.868 112.448 317.088 112.54 317.143C112.689 317.238 113.114 317.299 113.363 317.339C113.487 317.354 113.627 317.348 113.765 317.331C114.095 317.291 114.737 317.222 114.739 317.244C114.742 317.278 114.803 317.374 114.55 317.689C114.296 317.992 113.799 318.522 113.799 318.522C113.799 318.522 113.842 318.616 113.917 318.669C113.991 318.723 114.187 318.757 114.148 318.907C114.108 319.058 113.732 319.37 113.861 319.44C113.973 319.52 114.245 319.418 114.188 319.578C114.132 319.738 113.766 320.162 113.807 320.233C113.849 320.305 114.224 320.992 113.552 321.525C113.043 321.92 111.594 322.784 110.927 323.172C110.643 323.339 110.386 323.597 110.25 323.848C110.161 324.037 110.075 324.261 110.03 324.544C109.949 325.223 109.182 327.087 109.182 327.087C109.182 327.087 109.152 327.139 109.123 327.214C109.05 327.383 108.967 327.639 108.991 327.709C109.013 327.756 109.122 327.802 109.282 327.832C109.408 327.868 109.611 327.792 109.791 327.647C114.199 324.131 117.189 319.429 116.791 316.063Z" fill="url(#paint5_linear_19_2)"/>
<path d="M234.122 316.95C237.844 306.8 229.134 290.948 214.666 281.543C200.199 272.137 185.454 272.741 181.731 282.891C178.009 293.041 186.719 308.893 201.187 318.298C215.654 327.703 230.399 327.1 234.122 316.95Z" fill="url(#paint6_linear_19_2)"/>
<path d="M236.048 309.897C235.65 320.091 222.826 323.232 207.431 316.921C192.007 310.619 179.831 297.211 180.23 287.017C180.35 283.957 181.576 281.529 183.68 279.816C188.533 275.785 198.073 275.577 208.847 279.993C220.4 284.729 230.13 293.43 234.102 301.792C235.463 304.607 236.148 307.344 236.048 309.897Z" fill="url(#paint7_linear_19_2)"/>
<path d="M231.373 307.98C231.363 308.233 231.353 308.487 231.316 308.729L231.314 308.768C230.384 316.647 219.968 318.934 207.55 313.843C195.104 308.741 185.221 298.132 184.927 289.75L184.928 289.711C184.91 289.446 184.92 289.193 184.93 288.939C185.262 280.458 195.917 277.813 208.753 283.076C221.56 288.346 231.705 299.498 231.373 307.98Z" fill="url(#paint8_linear_19_2)"/>
<path opacity="0.5" fill-rule="evenodd" clip-rule="evenodd" d="M234.33 297.028C230.037 299.524 220.837 298.925 210.323 294.99C198.85 290.695 189.288 283.737 186.004 277.801C190.641 274.296 199.794 274.136 210.121 278.001C221.195 282.146 230.51 289.736 234.33 297.028Z" fill="url(#paint9_linear_19_2)"/>
<path d="M231.067 308.894L231.065 308.933C230.138 316.723 219.772 318.984 207.413 313.949C195.026 308.903 185.191 298.413 184.898 290.126L184.9 290.088C185.062 288.841 185.443 287.743 186.044 286.774C189.198 281.771 198.161 280.838 208.553 285.071C219.526 289.542 228.528 298.321 230.617 306.028C230.888 307 231.047 307.966 231.067 308.894Z" fill="#557086"/>
<path opacity="0.2" fill-rule="evenodd" clip-rule="evenodd" d="M230.657 302.393C225.775 303.434 218.161 302.428 209.668 299.24C200.268 295.71 192.143 290.393 187.702 285.299C190.754 280.888 199.401 280.084 209.416 283.843C219.992 287.814 228.657 295.584 230.657 302.393Z" fill="url(#paint10_linear_19_2)"/>
<path d="M227.15 306.448C227.218 298.894 218.625 289.375 207.976 285.256C197.579 281.24 189.132 283.972 189.07 291.368C189.027 296.837 193.539 303.341 200.078 308.085C201.06 307.631 201.9 306.46 202.324 305.776C202.742 305.25 203.187 304.754 203.631 304.279C205.539 305.542 208.153 306.158 209.62 305.664L209.677 305.647C207.966 304.405 205.61 303.716 204.014 303.917C204.575 303.35 205.162 302.833 205.776 302.368C207.654 303.679 210.293 304.404 211.813 303.972L211.871 303.956C210.246 302.709 207.893 301.921 206.244 302.021C206.857 301.575 207.497 301.16 208.164 300.796C210.102 302.031 212.719 302.569 214.132 301.993L214.189 301.976C212.587 300.878 210.483 300.273 208.974 300.391C209.032 300.355 209.09 300.338 209.148 300.302C209.553 300.11 209.957 299.937 210.361 299.764C212.696 300.245 214.827 299.446 215.23 297.855L215.233 297.777C212.818 297.123 210.519 297.874 210.004 299.457C209.6 299.611 209.224 299.795 208.848 299.98C209.507 299.093 209.45 297.653 208.594 296.324L208.537 296.34C207.178 296.979 206.881 298.792 207.864 300.493C207.227 300.829 206.644 301.228 206.032 301.635C206.446 300.488 205.89 298.723 204.639 297.351L204.609 297.398C203.69 298.397 204.092 300.458 205.447 302.092C204.861 302.55 204.303 303.039 203.772 303.559C204.132 302.33 203.496 300.472 202.16 299.065L202.13 299.113C201.292 300.225 201.832 302.401 203.299 304.043C202.945 304.396 202.617 304.8 202.29 305.184C202.209 305.09 202.127 305.017 202.016 304.951C201.628 304.712 201.076 304.325 200.498 303.848C200.114 303.511 199.701 303.201 199.258 302.919C197.57 301.826 197.844 301.341 196.968 299.803C196.915 299.702 196.209 298.893 196.074 298.737C196.046 298.706 195.607 298.326 195.369 297.889C195.186 297.494 195.058 297.142 195.041 296.856C194.999 296.46 194.786 296.113 194.261 295.757C191.771 294.115 192.979 292.257 193.074 291.997C193.168 291.776 192.855 291.069 192.755 290.709C192.757 290.67 192.731 290.619 192.733 290.56C192.589 289.882 193.001 289.513 193.316 289.423C193.632 289.333 194.679 289.405 194.91 289.3C195.141 289.196 195.318 289.029 195.548 288.944C195.865 288.815 196.778 288.672 197.997 288.714C198.733 288.738 198.901 288.069 199.189 287.968C199.678 287.79 200.404 288.088 200.977 287.964C201.263 287.902 201.657 287.985 201.916 287.892C203.207 287.505 204.896 287.84 206.553 288.282C207.675 288.604 208.923 289.337 210.091 289.956C210.258 290.045 210.424 290.153 210.59 290.242C213.213 291.38 216.353 293.07 217.467 294.326C218.146 295.104 218.488 295.783 218.641 296.225C218.82 296.718 219.056 297.214 219.378 297.705L220.044 298.798C220.471 299.492 220.587 300.158 220.368 300.667C220.244 300.955 220.174 301.285 220.307 301.519C220.519 301.906 221.17 302.672 221.549 303.127C221.739 303.345 221.958 303.555 222.177 303.745C222.699 304.199 223.714 305.095 223.712 305.134C223.71 305.193 223.785 305.443 223.327 305.554C222.869 305.645 221.987 305.721 221.987 305.721C221.987 305.721 222.035 305.941 222.141 306.144C222.246 306.347 222.544 306.709 222.452 306.89C222.36 307.072 221.711 306.984 221.897 307.3C222.055 307.605 222.499 307.867 222.379 308.037C222.259 308.207 221.602 308.316 221.652 308.496C221.701 308.677 222.146 310.376 220.99 310.18C220.117 310.02 217.683 309.139 216.565 308.719C216.089 308.543 215.635 308.556 215.372 308.747C215.195 308.914 215.016 309.14 214.888 309.526C214.623 310.494 213.049 312.301 213.049 312.301C213.049 312.301 212.991 312.337 212.931 312.412C212.783 312.571 212.601 312.855 212.624 313.004C212.648 313.114 212.809 313.36 213.052 313.659C213.241 313.916 213.574 314.113 213.884 314.161C221.467 315.404 227.085 312.486 227.15 306.448Z" fill="#38E8F6"/>
<path d="M227.524 306.772C227.453 299.917 218.638 290.381 207.857 285.537C197.33 280.812 188.886 282.419 188.96 289.132C189.017 294.096 193.674 300.471 200.335 305.457C201.314 305.146 202.137 304.17 202.551 303.593C202.961 303.158 203.399 302.754 203.837 302.367C205.779 303.713 208.419 304.543 209.884 304.246L209.941 304.237C208.199 302.931 205.817 302.061 204.216 302.079C204.769 301.621 205.351 301.213 205.959 300.853C207.872 302.239 210.538 303.171 212.059 302.936L212.116 302.927C210.459 301.626 208.079 300.667 206.423 300.587C207.031 300.245 207.667 299.935 208.331 299.673C210.302 300.996 212.944 301.755 214.353 301.378L214.411 301.369C212.779 300.206 210.652 299.437 209.138 299.388C209.196 299.362 209.253 299.353 209.311 299.326C209.715 299.193 210.118 299.078 210.52 298.962C212.878 299.642 215.005 299.136 215.381 297.733L215.383 297.662C212.943 296.818 210.645 297.262 210.156 298.647C209.754 298.745 209.379 298.873 209.004 299.002C209.65 298.265 209.566 296.951 208.681 295.655L208.624 295.664C207.27 296.103 207.004 297.719 208.024 299.366C207.389 299.606 206.81 299.908 206.203 300.214C206.598 299.215 206.007 297.555 204.723 296.178L204.694 296.218C203.789 297.031 204.231 298.944 205.623 300.569C205.043 300.924 204.491 301.311 203.966 301.728C204.306 300.649 203.631 298.895 202.263 297.479L202.234 297.519C201.412 298.443 201.994 300.476 203.5 302.119C203.15 302.403 202.828 302.736 202.506 303.051C202.423 302.958 202.339 302.882 202.226 302.811C201.831 302.554 201.269 302.145 200.68 301.652C200.288 301.306 199.866 300.982 199.416 300.68C197.699 299.512 197.965 299.099 197.056 297.612C197.001 297.514 196.277 296.706 196.137 296.551C196.109 296.52 195.661 296.129 195.413 295.707C195.222 295.33 195.087 294.997 195.064 294.735C195.015 294.371 194.794 294.034 194.26 293.656C191.727 291.907 192.907 290.344 192.998 290.118C193.088 289.927 192.76 289.252 192.654 288.915C192.655 288.879 192.627 288.83 192.628 288.777C192.471 288.147 192.878 287.854 193.194 287.805C193.51 287.756 194.563 287.929 194.794 287.858C195.024 287.787 195.199 287.654 195.429 287.601C195.745 287.516 196.661 287.481 197.887 287.645C198.628 287.743 198.784 287.152 199.072 287.09C199.56 286.979 200.296 287.325 200.869 287.272C201.155 287.246 201.553 287.361 201.812 287.303C203.103 287.086 204.808 287.565 206.481 288.138C207.616 288.547 208.884 289.341 210.069 290.025C210.238 290.123 210.407 290.238 210.577 290.336C213.234 291.641 216.422 293.502 217.565 294.758C218.262 295.535 218.619 296.188 218.781 296.605C218.97 297.071 219.217 297.546 219.549 298.026L220.239 299.087C220.681 299.762 220.809 300.379 220.599 300.818C220.479 301.067 220.415 301.36 220.553 301.587C220.773 301.96 221.442 302.723 221.831 303.176C222.027 303.394 222.25 303.607 222.475 303.802C223.007 304.268 224.044 305.187 224.043 305.223C224.042 305.276 224.122 305.511 223.663 305.565C223.205 305.6 222.319 305.578 222.319 305.578C222.319 305.578 222.372 305.782 222.482 305.977C222.591 306.173 222.898 306.532 222.808 306.688C222.719 306.843 222.065 306.697 222.258 307.003C222.423 307.296 222.873 307.58 222.756 307.722C222.638 307.864 221.98 307.895 222.033 308.064C222.086 308.233 222.564 309.822 221.399 309.525C220.518 309.289 218.055 308.237 216.923 307.74C216.441 307.531 215.985 307.496 215.724 307.642C215.549 307.775 215.374 307.962 215.251 308.299C215.003 309.152 213.454 310.63 213.454 310.63C213.454 310.63 213.396 310.657 213.337 310.719C213.191 310.847 213.014 311.087 213.039 311.225C213.066 311.327 213.232 311.567 213.482 311.864C213.677 312.117 214.015 312.33 214.327 312.406C221.975 314.32 227.569 312.269 227.524 306.772Z" fill="url(#paint11_linear_19_2)"/>
<path d="M104.194 67.2387C98.6414 53.8618 84.0714 49.4903 71.6512 57.4747C59.231 65.4591 53.6639 82.7758 59.2166 96.1528C64.7694 109.53 79.3393 113.901 91.7595 105.917C104.18 97.9325 109.747 80.6157 104.194 67.2387Z" fill="url(#paint12_linear_19_2)"/>
<path d="M100.227 60.681C107.876 71.431 105.398 89.012 94.7098 99.9314C84.0166 110.891 69.1229 111.021 61.4742 100.271C59.1781 97.0443 57.7868 93.2124 57.2772 89.1186C56.0398 79.5923 59.5114 68.6626 66.9913 61.021C75.0125 52.8265 85.3739 50.6889 93.2842 54.6761C95.9564 55.9925 98.3111 57.9884 100.227 60.681Z" fill="url(#paint13_linear_19_2)"/>
<path d="M96.9805 63.9973C97.1706 64.2646 97.3608 64.5318 97.5316 64.8187L97.5608 64.8599C103.234 73.8658 101.02 87.8773 92.3992 96.6845C83.759 105.511 71.8823 105.896 65.3584 97.7585L65.3291 97.7174C65.1197 97.4699 64.9295 97.2027 64.7394 96.9355C58.3775 87.9939 60.41 73.3517 69.3207 64.2484C78.2268 55.1853 90.6186 55.0558 96.9805 63.9973Z" fill="url(#paint14_linear_19_2)"/>
<path opacity="0.5" fill-rule="evenodd" clip-rule="evenodd" d="M92.5991 54.3715C93.0962 62.1759 88.9954 72.1173 81.4859 79.7709C73.2903 88.1239 63.5261 91.2312 57.0924 88.2553C55.8533 78.9026 59.2767 68.1499 66.6528 60.6323C74.5625 52.5707 84.7799 50.4681 92.5991 54.3715Z" fill="url(#paint15_linear_19_2)"/>
<path d="M97.5288 64.912L97.558 64.953C103.224 73.9453 101.012 87.9355 92.4033 96.7293C83.7749 105.543 71.9142 105.926 65.3992 97.8015L65.3699 97.7605C64.4686 96.3065 63.7655 94.7563 63.246 93.0895C60.5846 84.431 63.286 73.3781 70.5246 65.9842C78.1686 58.1763 88.3892 56.987 95.1418 62.4945C95.9968 63.1807 96.8037 63.9868 97.5288 64.912Z" fill="#557086"/>
<path opacity="0.2" fill-rule="evenodd" clip-rule="evenodd" d="M94.6198 62.2927C93.6207 69.1101 89.7877 76.755 83.7247 82.9349C77.0135 89.7754 69.2514 93.1108 63.1157 92.4477C60.487 83.9132 63.1552 73.0189 70.305 65.7313C77.8551 58.0356 87.9501 56.8639 94.6198 62.2927Z" fill="url(#paint16_linear_19_2)"/>
<path d="M94.1404 67.1551C88.4236 59.4952 77.9196 59.5689 70.7395 67.3667C63.7335 74.9867 62.5982 87.196 68.1979 94.6913C72.3392 100.23 78.9995 101.704 85.0918 99.1384C85.1202 97.5817 84.5494 95.4647 84.1908 94.3033C83.9494 93.3066 83.7419 92.3106 83.549 91.3352C85.2351 90.4652 86.6975 88.1538 86.8791 86.0143L86.8885 85.9336C85.2939 86.6035 83.8739 88.5518 83.42 90.5433C83.202 89.3448 83.0327 88.1677 82.912 87.012C84.6227 86.2235 86.1776 83.9953 86.4271 81.8573L86.4366 81.7767C84.8708 82.3462 83.3775 84.1916 82.8264 86.1403C82.7203 85.0052 82.6482 83.8708 82.6248 82.7579C84.3009 81.827 85.7048 79.4333 85.8038 77.2716L85.8132 77.1909C84.3692 77.8847 83.1086 79.6345 82.6249 81.4432C82.6197 81.342 82.6291 81.2613 82.6238 81.1601C82.6312 80.513 82.6532 79.8866 82.6752 79.2601C83.9295 77.1259 84.1316 73.9351 83.0756 71.8874L83.0171 71.8051C81.6023 73.8547 81.2988 77.1846 82.3066 79.3525C82.27 79.9584 82.2673 80.565 82.2647 81.1717C81.8413 79.5436 80.7247 78.162 79.3885 77.7863L79.3791 77.867C79.3481 80.0304 80.6131 82.1842 82.2803 82.7901C82.2938 83.8422 82.3753 84.8958 82.4521 85.9898C81.7375 84.375 80.1849 83.2257 78.6656 83.2502L78.6902 83.3317C79.1004 85.364 80.8198 86.9825 82.5774 87.1052C82.7028 88.2206 82.8622 89.3368 83.0556 90.4537C82.2584 88.8168 80.6039 87.665 79.0266 87.7488L79.0511 87.8303C79.578 89.8856 81.438 91.467 83.2437 91.4695C83.3775 92.221 83.5599 92.9939 83.7277 93.7462C83.6257 93.7438 83.5384 93.762 83.4464 93.8204C83.117 94.0149 82.613 94.2456 82.0312 94.4137C81.6286 94.5053 81.236 94.6578 80.8533 94.8711C79.3805 95.6653 79.1155 94.8702 77.6135 94.3086C77.5163 94.2658 76.6328 94.2448 76.4629 94.2408C76.4289 94.24 75.973 94.3505 75.5501 94.1786C75.1805 93.9878 74.8642 93.778 74.6399 93.5097C74.3231 93.1584 73.9781 93.049 73.5081 93.2805C71.3133 94.4216 70.3599 91.2033 70.1984 90.8354C70.0662 90.5087 69.4096 90.1492 69.098 89.8991C69.0687 89.8579 69.0201 89.8366 68.9762 89.7748C68.4064 89.2556 68.282 88.4235 68.3338 87.9797C68.3856 87.536 68.8379 86.4344 68.8463 86.0705C68.8547 85.7067 68.7951 85.3412 68.8181 84.9979C68.8406 84.513 69.0791 83.3456 69.5743 82.0226C69.8723 81.2206 69.4275 80.3606 69.4599 79.9366C69.5107 79.2097 70.0136 78.6959 70.1371 77.9302C70.1988 77.5474 70.4111 77.1884 70.4388 76.8048C70.636 74.969 71.5332 73.4128 72.4989 71.9998C73.1703 71.0651 74.2018 70.402 75.1167 69.7159C75.2474 69.6179 75.3928 69.5405 75.5235 69.4424C77.3858 67.6463 79.8645 65.8243 81.2431 65.8369C82.0927 65.8571 82.7393 66.1557 83.1335 66.428C83.5763 66.7217 84.0431 66.9552 84.5387 67.0884L85.6225 67.4378C86.3126 67.6565 86.863 68.1954 87.1667 68.951C87.3382 69.3798 87.5629 69.7896 87.7914 69.876C88.1657 70.0265 88.9959 70.0665 89.4863 70.0984C89.7242 70.104 89.9667 70.0693 90.1947 70.0141C90.7379 69.8854 91.8049 69.6479 91.8342 69.689C91.8781 69.7508 92.0971 69.9178 92.0072 70.5426C91.9026 71.1469 91.6249 72.2122 91.6249 72.2122C91.6249 72.2122 91.81 72.3784 92.0044 72.464C92.1989 72.5495 92.5874 72.579 92.6903 72.8646C92.7933 73.1502 92.4801 73.7899 92.7912 73.8985C93.0829 74.0267 93.4509 73.7928 93.5346 74.0982C93.6182 74.4035 93.4514 75.249 93.6071 75.3741C93.7629 75.4992 95.2235 76.707 94.6353 77.8054C94.182 78.6238 92.5868 80.4668 91.8423 81.2986C91.5281 81.6551 91.3649 82.1771 91.4104 82.6636C91.47 83.0291 91.5735 83.4563 91.8181 83.9879C92.4537 85.257 93.2288 88.8351 93.2288 88.8351C93.2288 88.8351 93.234 88.9364 93.2685 89.0788C93.3328 89.4039 93.4802 89.8928 93.602 90.0171C93.6945 90.1002 93.9423 90.1668 94.2628 90.1946C94.5299 90.2414 94.806 90.066 94.9602 89.7662C98.7881 82.5156 98.7061 73.2909 94.1404 67.1551Z" fill="#38E8F6"/>
<path d="M93.5957 66.3922C87.879 58.7324 77.375 58.8061 70.1948 66.6041C63.1888 74.2242 62.0534 86.4334 67.653 93.9286C71.7942 99.4677 78.4545 100.941 84.5469 98.3755C84.5752 96.8189 84.0045 94.7019 83.6459 93.5405C83.4045 92.5437 83.197 91.5477 83.0042 90.5723C84.6903 89.7023 86.1527 87.391 86.3343 85.2514L86.3437 85.1707C84.7491 85.8407 83.329 87.789 82.8751 89.7805C82.6572 88.582 82.4879 87.4049 82.3672 86.2492C84.0779 85.4607 85.6328 83.2324 85.8823 81.0945L85.8918 81.0138C84.3259 81.5833 82.8327 83.4287 82.2815 85.3775C82.1755 84.2423 82.1034 83.108 82.08 81.9951C83.7561 81.0641 85.16 78.6705 85.259 76.5087L85.2684 76.4281C83.8244 77.1218 82.5638 78.8717 82.0801 80.6804C82.0749 80.5792 82.0843 80.4985 82.0791 80.3972C82.0864 79.7502 82.1084 79.1238 82.1304 78.4973C83.3848 76.363 83.5868 73.1722 82.5309 71.1246L82.4724 71.0423C81.0575 73.0919 80.7541 76.4218 81.7619 78.5897C81.7252 79.1955 81.7226 79.8022 81.7199 80.4089C81.2965 78.7808 80.18 77.3992 78.8437 77.0236L78.8343 77.1042C78.8033 79.2676 80.0683 81.4214 81.7355 82.0273C81.749 83.0794 81.8304 84.133 81.9072 85.227C81.1927 83.6122 79.6401 82.4629 78.1208 82.4874L78.1454 82.5689C78.5556 84.6012 80.275 86.2197 82.0326 86.3424C82.158 87.4577 82.3174 88.5739 82.5107 89.6909C81.7136 88.0539 80.059 86.9022 78.4817 86.986L78.5063 87.0675C79.0331 89.1228 80.8931 90.7041 82.6988 90.7066C82.8326 91.4582 83.015 92.2311 83.1828 92.9834C83.0808 92.981 82.9935 92.9991 82.9015 93.0576C82.5721 93.252 82.0681 93.4827 81.4863 93.6509C81.0837 93.7425 80.6911 93.8949 80.3084 94.1083C78.8356 94.9025 78.5706 94.1074 77.0686 93.5458C76.9714 93.5031 76.0879 93.4821 75.918 93.478C75.884 93.4772 75.4281 93.5877 75.0052 93.4159C74.6356 93.225 74.3193 93.0153 74.095 92.747C73.7782 92.3956 73.4332 92.2863 72.9632 92.5178C70.7684 93.6589 69.8151 90.4406 69.6535 90.0727C69.5213 89.746 68.8647 89.3865 68.5531 89.1364C68.5239 89.0953 68.4752 89.0739 68.4313 89.0122C67.8615 88.493 67.7371 87.6608 67.7889 87.2171C67.8407 86.7734 68.293 85.6717 68.3014 85.3079C68.3098 84.944 68.2502 84.5785 68.2733 84.2353C68.2958 83.7504 68.5343 82.583 69.0295 81.2599C69.3275 80.458 68.8827 79.5979 68.9151 79.174C68.9659 78.4471 69.4689 77.9332 69.5923 77.1676C69.654 76.7848 69.8663 76.4258 69.894 76.0421C70.0913 74.2063 70.9885 72.6501 71.9542 71.2371C72.6255 70.3025 73.6571 69.6393 74.572 68.9532C74.7027 68.8552 74.8481 68.7777 74.9788 68.6797C76.8411 66.8835 79.3198 65.0615 80.6984 65.0741C81.548 65.0943 82.1947 65.3929 82.5888 65.6652C83.0316 65.9588 83.4985 66.1924 83.9941 66.3256L85.0778 66.6749C85.7679 66.8936 86.3183 67.4326 86.622 68.1881C86.7935 68.6169 87.0182 69.0268 87.2467 69.1131C87.621 69.2636 88.4512 69.3036 88.9416 69.3355C89.1795 69.3411 89.422 69.3064 89.65 69.2512C90.1932 69.1225 91.2602 68.885 91.2895 68.9261C91.3334 68.9879 91.5524 69.1549 91.4625 69.7797C91.3579 70.384 91.0802 71.4493 91.0802 71.4493C91.0802 71.4493 91.2652 71.6155 91.4597 71.701C91.6542 71.7866 92.0426 71.816 92.1456 72.1016C92.2486 72.3872 91.9354 73.027 92.2464 73.1355C92.5381 73.2638 92.9062 73.0299 92.9898 73.3352C93.0735 73.6406 92.9066 74.4861 93.0624 74.6111C93.2182 74.7362 94.6788 75.944 94.0906 77.0424C93.6372 77.8609 92.042 79.7039 91.2975 80.5356C90.9833 80.8922 90.8201 81.4142 90.8656 81.9007C90.9252 82.2661 91.0286 82.6933 91.2733 83.225C91.9089 84.4941 92.6839 88.0722 92.6839 88.0722C92.6839 88.0722 92.6892 88.1734 92.7237 88.3158C92.7879 88.641 92.9353 89.1299 93.0571 89.2541C93.1497 89.3372 93.3975 89.4038 93.7179 89.4316C93.9851 89.4784 94.2611 89.303 94.4154 89.0033C98.2433 81.7525 98.176 72.5485 93.5957 66.3922Z" fill="url(#paint17_linear_19_2)"/>
<path d="M225.284 219.032C236.815 169.26 205.814 119.563 156.042 108.032C106.269 96.5011 56.573 127.502 45.0418 177.274C33.5107 227.047 64.5114 276.743 114.284 288.274C164.056 299.805 213.753 268.805 225.284 219.032Z" fill="url(#paint18_linear_19_2)"/>
<path d="M227.763 193.026C227.763 241.311 186.31 280.456 135.256 280.456C84.1087 280.549 42.6556 241.311 42.6556 193.026C42.6556 178.532 46.3486 164.868 52.9958 152.866C68.3214 124.8 99.4343 105.596 135.163 105.596C173.477 105.596 206.344 127.569 220.378 158.959C225.178 169.484 227.763 180.932 227.763 193.026Z" fill="url(#paint19_linear_19_2)"/>
<path d="M212.253 193.026C212.253 194.227 212.253 195.427 212.161 196.627V196.812C210.129 235.31 176.432 265.869 135.255 265.869C93.9871 265.869 60.3815 235.31 58.3504 196.812V196.627C58.2581 195.427 58.2581 194.227 58.2581 193.026C58.2581 152.866 92.6946 120.184 135.255 120.184C177.724 120.276 212.253 152.866 212.253 193.026Z" fill="url(#paint20_linear_19_2)"/>
<path opacity="0.5" fill-rule="evenodd" clip-rule="evenodd" d="M220.47 158.959C206.252 180.932 174.862 196.165 138.487 196.165C98.7879 196.165 65.1823 178.07 53.088 152.866C68.3213 124.8 99.4342 105.596 135.163 105.596C173.477 105.596 206.344 127.569 220.47 158.959Z" fill="url(#paint21_linear_19_2)"/>
<path d="M212.068 196.627V196.812C210.037 235.31 176.339 265.869 135.163 265.869C93.8948 265.869 60.2892 235.31 58.2581 196.812V196.627C58.6273 190.441 59.7352 184.533 61.5817 178.809C71.2756 149.173 100.542 127.569 135.163 127.569C171.723 127.569 202.374 151.666 210.222 183.979C211.237 188.041 211.884 192.288 212.068 196.627Z" fill="#557086"/>
<path opacity="0.2" fill-rule="evenodd" clip-rule="evenodd" d="M210.222 183.979C193.788 199.304 167.753 209.183 138.395 209.183C105.897 209.183 77.4614 197.089 61.5818 178.809C71.2757 149.173 100.542 127.569 135.163 127.569C171.723 127.569 202.374 151.666 210.222 183.979Z" fill="url(#paint22_linear_19_2)"/>
<path d="M198.128 193.673C197.389 158.59 168.215 130.893 133.04 132.093C98.6956 133.293 71.5526 162.006 72.2912 196.35C72.8451 221.739 88.3554 243.25 110.236 252.759C113.375 248.79 115.96 241.773 117.253 237.803C118.545 234.572 119.93 231.433 121.315 228.386C127.685 230.602 136.271 228.478 140.98 223.401L141.164 223.216C135.44 220.723 127.685 222.016 122.515 225.986C124.269 222.293 126.116 218.785 128.054 215.461C134.332 217.954 143.011 216.292 147.904 211.399L148.088 211.214C142.641 208.537 134.886 209.368 129.532 212.968C131.47 209.737 133.501 206.598 135.625 203.644C142.087 205.675 150.673 203.182 155.197 197.827L155.382 197.643C150.027 195.611 143.103 196.812 138.21 200.228C138.395 199.951 138.579 199.766 138.764 199.489C140.056 197.827 141.349 196.258 142.641 194.688C150.304 192.472 157.136 184.717 158.244 176.593V176.224C150.304 177.793 142.918 185.641 141.441 193.95C140.149 195.427 138.948 196.996 137.748 198.566C139.779 193.211 139.41 186.656 136.456 182.132L136.271 182.317C131.932 187.856 131.193 196.812 134.609 202.813C132.578 205.582 130.732 208.537 128.793 211.583C129.993 205.49 127.962 198.381 123.715 194.411L123.623 194.688C120.761 201.059 122.33 209.829 126.946 214.815C125.1 218.046 123.346 221.37 121.684 224.786C122.7 218.415 120.392 211.029 115.868 207.06L115.775 207.336C113.19 214.076 115.221 223.124 120.207 227.925C119.099 230.233 118.083 232.725 117.068 235.126C116.791 234.849 116.514 234.664 116.145 234.572C114.852 234.202 113.006 233.464 111.067 232.356C109.774 231.525 108.39 230.879 106.912 230.417C101.281 228.571 102.112 225.801 99.0649 220.354C98.8803 219.985 96.4799 217.584 96.0182 217.123C95.9259 217.03 94.4487 216.107 93.6178 214.538C92.9716 213.061 92.51 211.676 92.4176 210.383C92.233 208.629 91.4944 207.429 89.7403 206.783C81.4312 203.921 85.1241 193.026 85.4011 191.642C85.6781 190.441 84.5702 187.764 84.2009 186.287C84.2009 186.102 84.1086 185.918 84.1086 185.641C83.5546 182.779 84.8471 180.286 85.8627 179.27C86.8783 178.255 90.2942 176.593 91.0328 175.67C91.7714 174.746 92.3253 173.639 93.0639 172.808C94.0795 171.607 97.0338 169.207 101.004 167.084C103.404 165.791 103.866 162.375 104.789 161.36C106.358 159.605 108.759 159.605 110.605 157.944C111.529 157.113 112.821 156.743 113.652 155.82C117.806 151.573 123.346 149.912 128.793 148.804C132.486 148.157 136.64 149.173 140.518 149.819C141.072 149.912 141.626 150.096 142.18 150.189C150.858 150.465 161.291 152.312 165.076 156.005C167.384 158.313 168.584 160.806 169.138 162.56C169.784 164.499 170.615 166.345 171.723 168.007L174.031 171.792C175.508 174.192 175.97 177.055 175.324 179.824C174.954 181.394 174.77 183.056 175.231 183.886C175.97 185.271 178.186 187.579 179.478 188.964C180.125 189.61 180.863 190.164 181.602 190.626C183.356 191.734 186.772 193.95 186.772 194.134C186.772 194.411 187.049 195.427 185.572 196.812C184.094 198.104 181.232 200.135 181.232 200.135C181.232 200.135 181.417 201.059 181.786 201.797C182.156 202.536 183.171 203.644 182.894 204.659C182.617 205.675 180.494 206.506 181.14 207.613C181.694 208.721 183.171 209.091 182.802 210.106C182.433 211.122 180.309 212.876 180.494 213.614C180.678 214.353 182.34 221.37 178.555 222.662C175.693 223.585 167.661 224.139 163.968 224.324C162.399 224.416 160.921 225.339 160.09 226.724C159.536 227.832 158.983 229.217 158.613 231.248C157.875 236.234 152.982 247.589 152.982 247.589C152.982 247.589 152.797 247.866 152.612 248.328C152.151 249.343 151.597 251.005 151.689 251.652C151.781 252.113 152.335 252.944 153.166 253.867C153.812 254.698 154.92 254.975 155.936 254.606C180.771 245.927 198.681 221.739 198.128 193.673Z" fill="#6972CD"/>
<path d="M198.128 190.441C197.389 155.359 168.215 127.662 133.04 128.862C98.6956 130.062 71.5526 158.775 72.2912 193.119C72.8451 218.508 88.3554 240.019 110.236 249.528C113.375 245.558 115.96 238.542 117.253 234.572C118.545 231.34 119.93 228.201 121.315 225.155C127.685 227.371 136.271 225.247 140.98 220.169L141.164 219.985C135.44 217.492 127.685 218.785 122.515 222.754C124.269 219.061 126.116 215.553 128.054 212.23C134.332 214.722 143.011 213.06 147.904 208.167L148.088 207.983C142.641 205.305 134.886 206.136 129.532 209.737C131.47 206.506 133.501 203.367 135.625 200.412C142.087 202.443 150.673 199.951 155.197 194.596L155.382 194.411C150.027 192.38 143.103 193.58 138.21 196.996C138.395 196.719 138.579 196.535 138.764 196.258C140.056 194.596 141.349 193.026 142.641 191.457C150.304 189.241 157.136 181.486 158.244 173.362V172.992C150.304 174.562 142.918 182.409 141.441 190.718C140.149 192.195 138.948 193.765 137.748 195.334C139.779 189.98 139.41 183.425 136.456 178.901L136.271 179.086C131.932 184.625 131.193 193.58 134.609 199.581C132.578 202.351 130.732 205.305 128.793 208.352C129.993 202.259 127.962 195.15 123.715 191.18L123.623 191.457C120.761 197.827 122.33 206.598 126.946 211.583C125.1 214.815 123.346 218.138 121.684 221.554C122.7 215.184 120.392 207.798 115.868 203.828L115.775 204.105C113.19 210.845 115.221 219.892 120.207 224.693C119.099 227.001 118.083 229.494 117.068 231.894C116.791 231.617 116.514 231.433 116.145 231.34C114.852 230.971 113.006 230.233 111.067 229.125C109.774 228.294 108.39 227.648 106.912 227.186C101.281 225.339 102.112 222.57 99.0649 217.123C98.8803 216.753 96.4799 214.353 96.0182 213.891C95.9259 213.799 94.4487 212.876 93.6178 211.306C92.9716 209.829 92.51 208.444 92.4176 207.152C92.233 205.398 91.4944 204.197 89.7403 203.551C81.4312 200.689 85.1241 189.795 85.4011 188.41C85.6781 187.21 84.5702 184.533 84.2009 183.055C84.2009 182.871 84.1086 182.686 84.1086 182.409C83.5546 179.547 84.8471 177.054 85.8627 176.039C86.8783 175.023 90.2942 173.362 91.0328 172.438C91.7714 171.515 92.3253 170.407 93.0639 169.576C94.0795 168.376 97.0338 165.976 101.004 163.852C103.404 162.56 103.866 159.144 104.789 158.128C106.358 156.374 108.759 156.374 110.605 154.712C111.529 153.881 112.821 153.512 113.652 152.589C117.806 148.342 123.346 146.68 128.793 145.572C132.486 144.926 136.64 145.942 140.518 146.588C141.072 146.68 141.626 146.865 142.18 146.957C150.858 147.234 161.291 149.081 165.076 152.774C167.384 155.082 168.584 157.574 169.138 159.328C169.784 161.267 170.615 163.114 171.723 164.776L174.031 168.561C175.508 170.961 175.97 173.823 175.324 176.593C174.954 178.162 174.77 179.824 175.231 180.655C175.97 182.04 178.186 184.348 179.478 185.733C180.125 186.379 180.863 186.933 181.602 187.395C183.356 188.503 186.772 190.718 186.772 190.903C186.772 191.18 187.049 192.195 185.572 193.58C184.094 194.873 181.232 196.904 181.232 196.904C181.232 196.904 181.417 197.827 181.786 198.566C182.156 199.304 183.171 200.412 182.894 201.428C182.617 202.443 180.494 203.274 181.14 204.382C181.694 205.49 183.171 205.859 182.802 206.875C182.433 207.89 180.309 209.645 180.494 210.383C180.678 211.122 182.34 218.138 178.555 219.431C175.693 220.354 167.661 220.908 163.968 221.093C162.399 221.185 160.921 222.108 160.09 223.493C159.536 224.601 158.983 225.986 158.613 228.017C157.875 233.002 152.982 244.358 152.982 244.358C152.982 244.358 152.797 244.635 152.612 245.097C152.151 246.112 151.597 247.774 151.689 248.42C151.781 248.882 152.335 249.713 153.166 250.636C153.812 251.467 154.92 251.744 155.936 251.375C180.771 242.696 198.681 218.6 198.128 190.441Z" fill="url(#paint23_linear_19_2)"/>
<defs>
<linearGradient id="paint0_linear_19_2" x1="112.175" y1="330.744" x2="107.225" y2="326.338" gradientUnits="userSpaceOnUse">
<stop stop-color="#557086"/>
<stop offset="1" stop-color="#425667"/>
</linearGradient>
<linearGradient id="paint1_linear_19_2" x1="92.5994" y1="321.526" x2="109.644" y2="335.042" gradientUnits="userSpaceOnUse">
<stop stop-color="#8CA2B5"/>
<stop offset="1" stop-color="#D9D9D9"/>
</linearGradient>
<linearGradient id="paint2_linear_19_2" x1="104.554" y1="313.389" x2="112.528" y2="329.046" gradientUnits="userSpaceOnUse">
<stop stop-color="#425667"/>
<stop offset="1" stop-color="#1A2228"/>
</linearGradient>
<linearGradient id="paint3_linear_19_2" x1="93.0566" y1="317.996" x2="114.872" y2="322.743" gradientUnits="userSpaceOnUse">
<stop stop-color="#D9F7F5"/>
<stop offset="1" stop-color="white"/>
</linearGradient>
<linearGradient id="paint4_linear_19_2" x1="96.4653" y1="316.752" x2="109.282" y2="324.907" gradientUnits="userSpaceOnUse">
<stop stop-color="#DEFCFF"/>
<stop offset="1" stop-color="white"/>
</linearGradient>
<linearGradient id="paint5_linear_19_2" x1="98.393" y1="319.199" x2="108.761" y2="329.291" gradientUnits="userSpaceOnUse">
<stop stop-color="#6972CD"/>
<stop offset="1" stop-color="#FFF8A0" stop-opacity="0.6"/>
</linearGradient>
<linearGradient id="paint6_linear_19_2" x1="218.783" y1="325.525" x2="218.213" y2="307.548" gradientUnits="userSpaceOnUse">
<stop stop-color="#557086"/>
<stop offset="1" stop-color="#425667"/>
</linearGradient>
<linearGradient id="paint7_linear_19_2" x1="188.04" y1="277.84" x2="199.069" y2="325.788" gradientUnits="userSpaceOnUse">
<stop stop-color="#8CA2B5"/>
<stop offset="1" stop-color="#D9D9D9"/>
</linearGradient>
<linearGradient id="paint8_linear_19_2" x1="208.753" y1="283.076" x2="197.781" y2="309.838" gradientUnits="userSpaceOnUse">
<stop stop-color="#425667"/>
<stop offset="1" stop-color="#1A2228"/>
</linearGradient>
<linearGradient id="paint9_linear_19_2" x1="191.778" y1="275.551" x2="233.137" y2="296.527" gradientUnits="userSpaceOnUse">
<stop stop-color="#D9F7F5"/>
<stop offset="1" stop-color="white"/>
</linearGradient>
<linearGradient id="paint10_linear_19_2" x1="196.579" y1="277.945" x2="211.658" y2="308.824" gradientUnits="userSpaceOnUse">
<stop stop-color="#DEFCFF"/>
<stop offset="1" stop-color="white"/>
</linearGradient>
<linearGradient id="paint11_linear_19_2" x1="197.624" y1="282.105" x2="195.89" y2="312.195" gradientUnits="userSpaceOnUse">
<stop stop-color="#6972CD"/>
<stop offset="1" stop-color="#FFF8A0" stop-opacity="0.6"/>
</linearGradient>
<linearGradient id="paint12_linear_19_2" x1="103.934" y1="92.4111" x2="87.8193" y2="87.1046" gradientUnits="userSpaceOnUse">
<stop stop-color="#557086"/>
<stop offset="1" stop-color="#425667"/>
</linearGradient>
<linearGradient id="paint13_linear_19_2" x1="57.4249" y1="82.2226" x2="102.722" y2="89.0577" gradientUnits="userSpaceOnUse">
<stop stop-color="#8CA2B5"/>
<stop offset="1" stop-color="#D9D9D9"/>
</linearGradient>
<linearGradient id="paint14_linear_19_2" x1="69.3207" y1="64.2484" x2="97.3211" y2="91.6562" gradientUnits="userSpaceOnUse">
<stop stop-color="#425667"/>
<stop offset="1" stop-color="#1A2228"/>
</linearGradient>
<linearGradient id="paint15_linear_19_2" x1="57.3852" y1="79.0214" x2="95.2465" y2="64.3006" gradientUnits="userSpaceOnUse">
<stop stop-color="#D9F7F5"/>
<stop offset="1" stop-color="white"/>
</linearGradient>
<linearGradient id="paint16_linear_19_2" x1="60.2066" y1="73.8451" x2="92.4331" y2="73.2146" gradientUnits="userSpaceOnUse">
<stop stop-color="#DEFCFF"/>
<stop offset="1" stop-color="white"/>
</linearGradient>
<linearGradient id="paint17_linear_19_2" x1="64.3489" y1="75.3229" x2="96.6452" y2="84.7552" gradientUnits="userSpaceOnUse">
<stop stop-color="#6972CD"/>
<stop offset="1" stop-color="#FFF8A0" stop-opacity="0.6"/>
</linearGradient>
<linearGradient id="paint18_linear_19_2" x1="174.393" y1="284.624" x2="140.276" y2="228.889" gradientUnits="userSpaceOnUse">
<stop stop-color="#557086"/>
<stop offset="1" stop-color="#425667"/>
</linearGradient>
<linearGradient id="paint19_linear_19_2" x1="66.9764" y1="135.322" x2="187.229" y2="265.708" gradientUnits="userSpaceOnUse">
<stop stop-color="#8CA2B5"/>
<stop offset="1" stop-color="#D9D9D9"/>
</linearGradient>
<linearGradient id="paint20_linear_19_2" x1="135.255" y1="120.184" x2="135.255" y2="265.869" gradientUnits="userSpaceOnUse">
<stop stop-color="#425667"/>
<stop offset="1" stop-color="#010312"/>
</linearGradient>
<linearGradient id="paint21_linear_19_2" x1="72.3808" y1="129.242" x2="214.927" y2="164.372" gradientUnits="userSpaceOnUse">
<stop stop-color="#D9F7F5"/>
<stop offset="1" stop-color="white"/>
</linearGradient>
<linearGradient id="paint22_linear_19_2" x1="90.6214" y1="121.81" x2="191.282" y2="194.435" gradientUnits="userSpaceOnUse">
<stop stop-color="#DEFCFF"/>
<stop offset="1" stop-color="white"/>
</linearGradient>
<linearGradient id="paint23_linear_19_2" x1="99.7416" y1="135.997" x2="171.69" y2="245.441" gradientUnits="userSpaceOnUse">
<stop stop-color="#6972CD"/>
<stop offset="1" stop-color="#FFF8A0" stop-opacity="0.6"/>
</linearGradient>
</defs>
</svg>
