<svg width="1317" height="164" viewBox="0 0 1317 164" fill="none" xmlns="http://www.w3.org/2000/svg">
<path d="M-140 111.93C-140 111.93 11.5342 168.353 111.759 162.586C234.051 155.551 280.646 57.3438 402.84 48.8581C518.035 40.8584 575.88 112.407 691.368 111.93C804.716 111.462 865.093 19.2536 974.278 48.8581C1025.42 62.7257 1041.93 100.759 1093.77 111.93C1183.5 131.266 1320 48.8581 1320 48.8581" stroke="#FADB82" stroke-opacity="0.25"/>
<path d="M-140 69.9301C-140 69.9301 11.5342 126.353 111.759 120.586C234.051 113.551 280.646 15.3438 402.84 6.85809C518.035 -1.14163 575.88 70.4068 691.368 69.9301C804.716 69.4622 865.093 -22.7464 974.278 6.85809C1025.42 20.7257 1041.93 58.7595 1093.77 69.9301C1183.5 89.2655 1320 6.85809 1320 6.85809" stroke="#627BFF" stroke-opacity="0.25"/>
</svg>
